# xmcd
#
# Track frame offsets: 
#        150
#        750
#        24344
#        68108
#        94652
#        122423
#        130829
#        144124
#        155419
#        168916
#        178939
#        192459
#        210269
#        222689
#        236074
#        248004
#        261064
#        274041
#        284304
#        298186
#
# Disc length: 4158 seconds
#
# Revision: 0
# Processed by: cddbd v1.5.2PL0 Copyright (c) Steve Scherf et al.
# Submitted via: ExactAudioCopy v1.3
#
DISCID=1a103c14
DTITLE=Albert King - Fillmore East, NY.1971 and Early Studio Recordings
DYEAR=2017
DGENRE=Blues
TTITLE0=Intro by Bill Graham
TTITLE1=Knock on Wood (Instrumental)
TTITLE2=Bles Power
TTITLE3=Crosscut Saw
TTITLE4=Personal Manager
TTITLE5=Instrumental Jam
TTITLE6=I Walked All Night Long
TTITLE7=I Get Evil
TTITLE8=Don't Throw Your Love On Me So Strong
TTITLE9=This Morning
TTITLE10=I'll Do Anything You Say
TTITLE11=Ooh-Ee Baby
TTITLE12=Blues At Sunrise
TTITLE13=Let's Have A Natural Ball
TTITLE14=I've Made Nights By Myself
TTITLE15=What Can I do to Change Your Mind
TTITLE16=Dyna Flow
TTITLE17=Got To Be Some Changes Made
TTITLE18=Goin' To California
TTITLE19=Had You Told It Like It Was (It Wouldn't Be Like It Is)
EXTD=
EXTT0=
EXTT1=
EXTT2=
EXTT3=
EXTT4=
EXTT5=
EXTT6=
EXTT7=
EXTT8=
EXTT9=
EXTT10=
EXTT11=
EXTT12=
EXTT13=
EXTT14=
EXTT15=
EXTT16=
EXTT17=
EXTT18=
EXTT19=
PLAYORDER=
